<mxfile host="app.diagrams.net" modified="2023-05-04T07:08:16.070Z" agent="Mozilla/5.0 (Windows NT 10.0; Win64; x64; rv:109.0) Gecko/20100101 Firefox/112.0" etag="pBuxIxxkvJ0K4O2ISLHv" version="21.2.4" type="github">
  <diagram name="PÃ¡gina-1" id="6t6HE8e8yGfjCwerA57F">
    <mxGraphModel dx="880" dy="481" grid="1" gridSize="10" guides="1" tooltips="1" connect="1" arrows="1" fold="1" page="1" pageScale="1" pageWidth="3300" pageHeight="4681" math="0" shadow="0">
      <root>
        <mxCell id="0" />
        <mxCell id="1" parent="0" />
        <mxCell id="nMMOSByeB-05nPlqBuB7-5" style="edgeStyle=none;rounded=0;orthogonalLoop=1;jettySize=auto;html=1;exitX=1;exitY=0.3333333333333333;exitDx=0;exitDy=0;exitPerimeter=0;entryX=0;entryY=0.5;entryDx=0;entryDy=0;" parent="1" source="nMMOSByeB-05nPlqBuB7-1" target="nMMOSByeB-05nPlqBuB7-3" edge="1">
          <mxGeometry relative="1" as="geometry" />
        </mxCell>
        <mxCell id="nMMOSByeB-05nPlqBuB7-12" style="edgeStyle=none;rounded=0;orthogonalLoop=1;jettySize=auto;html=1;exitX=1;exitY=0.3333333333333333;exitDx=0;exitDy=0;exitPerimeter=0;entryX=0;entryY=0.5;entryDx=0;entryDy=0;" parent="1" source="nMMOSByeB-05nPlqBuB7-1" target="nMMOSByeB-05nPlqBuB7-7" edge="1">
          <mxGeometry relative="1" as="geometry" />
        </mxCell>
        <mxCell id="nMMOSByeB-05nPlqBuB7-13" style="edgeStyle=none;rounded=0;orthogonalLoop=1;jettySize=auto;html=1;exitX=1;exitY=0.3333333333333333;exitDx=0;exitDy=0;exitPerimeter=0;entryX=0;entryY=0.5;entryDx=0;entryDy=0;" parent="1" source="nMMOSByeB-05nPlqBuB7-1" target="nMMOSByeB-05nPlqBuB7-8" edge="1">
          <mxGeometry relative="1" as="geometry" />
        </mxCell>
        <mxCell id="nMMOSByeB-05nPlqBuB7-24" style="edgeStyle=none;rounded=0;orthogonalLoop=1;jettySize=auto;html=1;exitX=1;exitY=0.3333333333333333;exitDx=0;exitDy=0;exitPerimeter=0;entryX=0;entryY=0.5;entryDx=0;entryDy=0;" parent="1" source="nMMOSByeB-05nPlqBuB7-1" target="nMMOSByeB-05nPlqBuB7-19" edge="1">
          <mxGeometry relative="1" as="geometry" />
        </mxCell>
        <mxCell id="nMMOSByeB-05nPlqBuB7-1" value="A" style="shape=umlActor;verticalLabelPosition=bottom;verticalAlign=top;html=1;outlineConnect=0;" parent="1" vertex="1">
          <mxGeometry x="110" y="220" width="30" height="60" as="geometry" />
        </mxCell>
        <mxCell id="nMMOSByeB-05nPlqBuB7-10" style="edgeStyle=none;rounded=0;orthogonalLoop=1;jettySize=auto;html=1;exitX=0;exitY=0.3333333333333333;exitDx=0;exitDy=0;exitPerimeter=0;entryX=1;entryY=0.5;entryDx=0;entryDy=0;" parent="1" source="nMMOSByeB-05nPlqBuB7-2" target="nMMOSByeB-05nPlqBuB7-6" edge="1">
          <mxGeometry relative="1" as="geometry" />
        </mxCell>
        <mxCell id="nMMOSByeB-05nPlqBuB7-11" style="edgeStyle=none;rounded=0;orthogonalLoop=1;jettySize=auto;html=1;exitX=0;exitY=0.3333333333333333;exitDx=0;exitDy=0;exitPerimeter=0;entryX=1;entryY=0.5;entryDx=0;entryDy=0;" parent="1" source="nMMOSByeB-05nPlqBuB7-2" target="nMMOSByeB-05nPlqBuB7-7" edge="1">
          <mxGeometry relative="1" as="geometry" />
        </mxCell>
        <mxCell id="nMMOSByeB-05nPlqBuB7-14" style="edgeStyle=none;rounded=0;orthogonalLoop=1;jettySize=auto;html=1;exitX=0;exitY=0.3333333333333333;exitDx=0;exitDy=0;exitPerimeter=0;entryX=1;entryY=0.5;entryDx=0;entryDy=0;" parent="1" source="nMMOSByeB-05nPlqBuB7-2" target="nMMOSByeB-05nPlqBuB7-8" edge="1">
          <mxGeometry relative="1" as="geometry" />
        </mxCell>
        <mxCell id="nMMOSByeB-05nPlqBuB7-2" value="B" style="shape=umlActor;verticalLabelPosition=bottom;verticalAlign=top;html=1;outlineConnect=0;" parent="1" vertex="1">
          <mxGeometry x="760" y="220" width="30" height="60" as="geometry" />
        </mxCell>
        <mxCell id="nMMOSByeB-05nPlqBuB7-3" value="Crear partida" style="ellipse;whiteSpace=wrap;html=1;" parent="1" vertex="1">
          <mxGeometry x="390" y="20" width="120" height="80" as="geometry" />
        </mxCell>
        <mxCell id="nMMOSByeB-05nPlqBuB7-6" value="Unirse a partida" style="ellipse;whiteSpace=wrap;html=1;" parent="1" vertex="1">
          <mxGeometry x="390" y="140" width="120" height="80" as="geometry" />
        </mxCell>
        <mxCell id="nMMOSByeB-05nPlqBuB7-7" value="Mover" style="ellipse;whiteSpace=wrap;html=1;" parent="1" vertex="1">
          <mxGeometry x="390" y="260" width="120" height="80" as="geometry" />
        </mxCell>
        <mxCell id="nMMOSByeB-05nPlqBuB7-8" value="Finalizar" style="ellipse;whiteSpace=wrap;html=1;" parent="1" vertex="1">
          <mxGeometry x="390" y="520" width="120" height="80" as="geometry" />
        </mxCell>
        <mxCell id="nMMOSByeB-05nPlqBuB7-16" value="&amp;lt;&amp;lt;Extend&amp;gt;&amp;gt;" style="html=1;verticalAlign=bottom;labelBackgroundColor=none;endArrow=open;endFill=0;dashed=1;rounded=0;entryX=0.5;entryY=1;entryDx=0;entryDy=0;exitX=0.5;exitY=0;exitDx=0;exitDy=0;" parent="1" source="nMMOSByeB-05nPlqBuB7-8" target="nMMOSByeB-05nPlqBuB7-19" edge="1">
          <mxGeometry width="160" relative="1" as="geometry">
            <mxPoint x="370" y="250" as="sourcePoint" />
            <mxPoint x="530" y="250" as="targetPoint" />
          </mxGeometry>
        </mxCell>
        <mxCell id="nMMOSByeB-05nPlqBuB7-19" value="Quitar mochila" style="ellipse;whiteSpace=wrap;html=1;" parent="1" vertex="1">
          <mxGeometry x="390" y="380" width="120" height="80" as="geometry" />
        </mxCell>
        <mxCell id="nMMOSByeB-05nPlqBuB7-27" value="JUEGO PATINETE" style="text;html=1;align=center;verticalAlign=middle;resizable=0;points=[];autosize=1;strokeColor=none;fillColor=none;" parent="1" vertex="1">
          <mxGeometry x="540" y="30" width="120" height="30" as="geometry" />
        </mxCell>
        <mxCell id="kUXPirsKl4_VQhLNQjYE-1" style="edgeStyle=none;rounded=0;orthogonalLoop=1;jettySize=auto;html=1;exitX=0;exitY=0.3333333333333333;exitDx=0;exitDy=0;exitPerimeter=0;entryX=1;entryY=0.5;entryDx=0;entryDy=0;" edge="1" parent="1" source="nMMOSByeB-05nPlqBuB7-2" target="nMMOSByeB-05nPlqBuB7-19">
          <mxGeometry relative="1" as="geometry" />
        </mxCell>
        <mxCell id="kUXPirsKl4_VQhLNQjYE-5" value="" style="rounded=0;whiteSpace=wrap;html=1;fillStyle=hatch;movable=1;resizable=1;rotatable=1;deletable=1;editable=1;locked=0;connectable=1;" vertex="1" parent="1">
          <mxGeometry x="250" y="10" width="420" height="610" as="geometry" />
        </mxCell>
      </root>
    </mxGraphModel>
  </diagram>
</mxfile>
